<svg width="100" height="100" viewBox="0 0 100 100" fill="none" xmlns="http://www.w3.org/2000/svg">
<g clip-path="url(#clip0_1_229)">
<g clip-path="url(#clip1_1_229)">
<path d="M5.87222 69.5592C5.4 69.1259 5.47778 68.6528 5.95093 68.2203L7.72222 66.724C8.15556 66.3296 8.58889 66.3694 9.06111 66.724C10.3213 67.7426 11.6991 67.9842 12.8806 67.9842C14.5741 67.9842 17.6444 67.0389 17.6444 63.1407V62.4713C16.4241 63.8491 14.6917 64.7157 12.4083 64.7157C7.44722 64.7157 3.86389 60.7389 3.86389 55.3444C3.86389 49.95 7.44723 46.0129 12.4074 46.0129C14.6907 46.0129 16.4232 46.8398 17.6435 48.2574V47.2333C17.6435 46.6426 17.9981 46.2889 18.5889 46.2889H21.6204C22.2111 46.2889 22.5657 46.6426 22.5657 47.2333V63.1407C22.5657 68.3379 19.1398 72.1222 12.8796 72.1222C10.0065 72.1185 7.56482 71.1333 5.87222 69.5592ZM17.6444 55.3444C17.6444 52.6278 15.8333 50.6222 13.1167 50.6222C10.4 50.6222 8.62778 52.6305 8.62778 55.3444C8.62778 58.0583 10.4 60.0666 13.1167 60.0666C15.8333 60.0666 17.6444 58.062 17.6444 55.3444Z" fill="#333333"/>
<path d="M26.226 60.3639V47.0176C26.226 46.5315 26.5176 46.2398 27.0028 46.2398H29.4972C29.9834 46.2398 30.275 46.5315 30.275 47.0176V48.9287C30.7542 48.1516 31.4017 47.492 32.1698 46.9986C32.9379 46.5052 33.807 46.1905 34.713 46.0778C35.2315 46.013 35.5232 46.3046 35.5232 46.8232V49.0583C35.5232 49.5445 35.2639 49.7991 34.7824 49.8361C33.0611 50 30.2778 50.6778 30.2778 54.3056V60.3639C30.2778 60.85 29.9861 61.1417 29.5 61.1417H27.0028C26.5176 61.1417 26.226 60.85 26.226 60.3639Z" fill="#333333"/>
<path d="M37.3528 53.6907C37.3528 49.1879 40.3324 46.0129 44.4148 46.0129C46.2935 46.0129 47.6861 46.6935 48.6907 47.8268V47.0176C48.6907 46.5315 48.9824 46.2398 49.4676 46.2398H51.962C52.4482 46.2398 52.7398 46.5315 52.7398 47.0176V60.3639C52.7398 60.85 52.4482 61.1416 51.962 61.1416H49.4676C48.9824 61.1416 48.6907 60.85 48.6907 60.3639V59.5861C47.6861 60.7203 46.2935 61.4009 44.4148 61.4009C40.3324 61.4009 37.3528 58.1287 37.3528 53.6907ZM48.6907 53.6907C48.6907 51.4555 47.2324 49.8018 44.9972 49.8018C42.762 49.8018 41.2722 51.4546 41.2722 53.6907C41.2722 55.9268 42.762 57.5796 44.9972 57.5796C47.2324 57.5796 48.6907 55.9259 48.6907 53.6907Z" fill="#333333"/>
<path d="M56.399 60.3639V47.0176C56.399 46.5315 56.6898 46.2398 57.1759 46.2398H59.6703C60.1565 46.2398 60.4481 46.499 60.4481 46.9528V47.6648C61.5815 46.4342 63.1694 46.0129 64.6268 46.0129C67.312 46.0129 70.4259 47.4703 70.4259 52.0389V60.3639C70.4259 60.85 70.1342 61.1416 69.6481 61.1416H67.1537C66.6676 61.1416 66.3759 60.85 66.3759 60.3639V52.6537C66.3759 50.0296 64.5296 49.4129 63.3963 49.4129C62.2296 49.4129 60.4481 50.0278 60.4481 52.6537V60.3639C60.4481 60.85 60.1565 61.1416 59.6703 61.1416H57.1759C56.6898 61.1416 56.399 60.85 56.399 60.3639Z" fill="#333333"/>
<path d="M74.0861 56.8334V49.3176H72.9204C72.4342 49.3176 72.1426 49.0259 72.1426 48.5398V47.0176C72.1426 46.5315 72.4342 46.2398 72.9204 46.2398H74.0861V42.45C74.0861 41.9639 74.3778 41.6722 74.8639 41.6722H77.3583C77.8435 41.6722 78.1352 41.9639 78.1352 42.45V46.2398H80.5324C81.0185 46.2398 81.3102 46.5315 81.3102 47.0176V48.5398C81.3102 49.0259 81.0185 49.3176 80.5324 49.3176H78.1352V56.1852C78.1352 57.9343 79.2046 57.9991 80.1444 57.9991H80.3704C80.8555 57.9991 81.1472 58.2908 81.1472 58.7769V60.3639C81.1472 60.85 80.8555 61.1417 80.3704 61.1417H78.4592C75.4796 61.1417 74.0861 59.5861 74.0861 56.8334Z" fill="#333333"/>
<path d="M81.787 53.6907C81.787 49.1879 84.9611 45.9481 89.4639 45.9481C94.0009 45.9481 97.1417 49.1889 97.1417 53.6907C97.1417 58.1287 93.9991 61.4685 89.4639 61.4685C84.9611 61.4657 81.787 58.1287 81.787 53.6907ZM93.1574 53.6907C93.1574 51.4555 91.6991 49.8018 89.4639 49.8018C87.2611 49.8018 85.7713 51.4546 85.7713 53.6907C85.7713 55.9268 87.2611 57.5796 89.4639 57.5796C91.6991 57.5777 93.1574 55.9259 93.1574 53.6907Z" fill="#333333"/>
<path d="M56.4482 67.5167C56.3556 67.3592 56.4 67.2259 56.5574 67.1176L57.1269 66.7417C57.2722 66.6491 57.3935 66.6815 57.5148 66.8148C57.8645 67.1788 58.3427 67.3916 58.8472 67.4074C59.3676 67.4074 59.6463 67.25 59.6463 66.8861C59.6463 66.4379 58.9315 66.3167 58.4954 66.1713C58.0593 66.0259 56.5741 65.6759 56.5741 64.4528C56.5741 63.2657 57.6158 62.7565 58.8148 62.7565C59.8695 62.7565 60.6074 63.1805 60.9713 63.6898C61.0806 63.8472 61.0315 63.9926 60.8741 64.0889L60.3658 64.4167C60.2204 64.5092 60.088 64.4889 59.9537 64.3676C59.6211 64.0846 59.2031 63.9216 58.7667 63.9046C58.2704 63.9046 58.0519 64.0981 58.0519 64.3768C58.0519 64.825 58.7426 64.9463 59.1787 65.0917C59.6148 65.237 61.1287 65.625 61.1287 66.8241C61.1287 67.9991 60.2565 68.6167 58.8269 68.6167C57.6111 68.6194 56.8121 68.0981 56.4482 67.5167Z" fill="#999999"/>
<path d="M61.9111 65.6639C61.9111 64.0047 63.0019 62.7686 64.6889 62.7686C66.3482 62.7686 67.3658 64.0047 67.3658 65.6639V65.7852C67.3693 65.8243 67.3642 65.8637 67.3509 65.9006C67.3375 65.9374 67.3162 65.9709 67.2885 65.9987C67.2607 66.0264 67.2272 66.0477 67.1904 66.0611C67.1535 66.0744 67.1141 66.0795 67.075 66.076H63.3713C63.5167 66.8269 64.0621 67.2797 64.7519 67.2797C65.3074 67.2797 65.6611 67.0852 65.8908 66.8797C66.0241 66.7584 66.1454 66.7343 66.2908 66.8435L66.8602 67.2676C67.0176 67.388 67.0537 67.5093 66.9445 67.638C66.4482 68.2195 65.6732 68.5704 64.7519 68.5704C63.038 68.5704 61.9111 67.3232 61.9111 65.6639ZM65.9445 65.1186C65.8121 64.4649 65.4 63.9686 64.6852 63.9686C63.9945 63.9686 63.5343 64.4167 63.3889 65.1186H65.9445Z" fill="#999999"/>
<path d="M68.9 70.0361C68.7546 69.9027 68.7787 69.7583 68.9241 69.625L69.4694 69.162C69.6028 69.0416 69.7361 69.0537 69.8815 69.162C70.2146 69.4268 70.6312 69.5644 71.0565 69.55C71.5769 69.55 72.5222 69.2592 72.5222 68.0601V67.8546C72.1463 68.2777 71.613 68.5444 70.9111 68.5444C69.3843 68.5444 68.2824 67.3213 68.2824 65.662C68.2824 64.0027 69.3843 62.7916 70.9111 62.7916C71.613 62.7916 72.1463 63.0453 72.5222 63.4814V63.1666C72.5187 63.1276 72.5237 63.0882 72.5371 63.0513C72.5505 63.0144 72.5718 62.9809 72.5995 62.9532C72.6272 62.9254 72.6607 62.9041 72.6976 62.8908C72.7345 62.8774 72.7739 62.8723 72.813 62.8759H73.7454C73.7844 62.8723 73.8238 62.8774 73.8607 62.8908C73.8976 62.9041 73.9311 62.9254 73.9588 62.9532C73.9866 62.9809 74.0079 63.0144 74.0212 63.0513C74.0346 63.0882 74.0397 63.1276 74.0361 63.1666V68.0601C74.0361 69.6592 72.9824 70.8222 71.0565 70.8222C70.1722 70.824 69.4213 70.5213 68.9 70.0361ZM72.5222 65.6638C72.5222 64.8305 71.9667 64.2101 71.1333 64.2101C70.3 64.2101 69.7528 64.8277 69.7528 65.6638C69.7528 66.5 70.2981 67.1175 71.1333 67.1175C71.9685 67.1175 72.5222 66.499 72.5222 65.6638Z" fill="#999999"/>
<path d="M75.3704 66.2963V63.1685C75.3668 63.1295 75.3719 63.0901 75.3852 63.0532C75.3986 63.0163 75.4199 62.9828 75.4476 62.9551C75.4754 62.9273 75.5089 62.906 75.5458 62.8927C75.5827 62.8793 75.622 62.8743 75.6611 62.8778H76.5935C76.6326 62.8743 76.672 62.8793 76.7088 62.8927C76.7457 62.906 76.7792 62.9273 76.807 62.9551C76.8347 62.9828 76.856 63.0163 76.8694 63.0532C76.8827 63.0901 76.8878 63.1295 76.8843 63.1685V66.051C76.8843 67.0324 77.575 67.263 78.0111 67.263C78.4472 67.263 79.1009 67.0324 79.1009 66.051V63.1685C79.0974 63.1295 79.1024 63.0901 79.1158 63.0532C79.1292 63.0163 79.1505 62.9828 79.1782 62.9551C79.2059 62.9273 79.2394 62.906 79.2763 62.8927C79.3132 62.8793 79.3526 62.8743 79.3917 62.8778H80.3241C80.3631 62.8743 80.4025 62.8793 80.4394 62.8927C80.4763 62.906 80.5098 62.9273 80.5375 62.9551C80.5653 62.9828 80.5866 63.0163 80.5999 63.0532C80.6133 63.0901 80.6184 63.1295 80.6148 63.1685V68.1593C80.6184 68.1984 80.6133 68.2377 80.5999 68.2746C80.5866 68.3115 80.5653 68.345 80.5375 68.3728C80.5098 68.4005 80.4763 68.4218 80.4394 68.4352C80.4025 68.4485 80.3631 68.4536 80.3241 68.45H79.3898C79.2046 68.45 79.0991 68.3574 79.0991 68.1954V67.9408C78.675 68.3889 78.0935 68.5463 77.5491 68.5463C76.5435 68.5463 75.3704 68.0019 75.3704 66.2963Z" fill="#999999"/>
<path d="M81.9445 68.1593V63.1686C81.9409 63.1295 81.946 63.0901 81.9593 63.0532C81.9727 63.0164 81.994 62.9829 82.0217 62.9551C82.0495 62.9274 82.083 62.9061 82.1199 62.8927C82.1568 62.8794 82.1961 62.8743 82.2352 62.8778H83.1685C83.2076 62.8743 83.247 62.8794 83.2839 62.8927C83.3208 62.9061 83.3543 62.9274 83.382 62.9551C83.4097 62.9829 83.431 63.0164 83.4444 63.0532C83.4578 63.0901 83.4628 63.1295 83.4593 63.1686V63.8834C83.6383 63.5928 83.8804 63.3461 84.1676 63.1616C84.4548 62.9772 84.7798 62.8596 85.1185 62.8177C85.3121 62.7936 85.4213 62.9019 85.4213 63.0954V63.9288C85.4253 63.9668 85.4209 64.0052 85.4085 64.0414C85.3962 64.0776 85.3761 64.1107 85.3496 64.1384C85.3232 64.166 85.2911 64.1876 85.2555 64.2016C85.2199 64.2156 85.1817 64.2217 85.1435 64.2195C84.5019 64.2806 83.4602 64.5343 83.4602 65.8862V68.1519C83.4638 68.191 83.4587 68.2304 83.4453 68.2672C83.432 68.3041 83.4107 68.3376 83.3829 68.3654C83.3552 68.3931 83.3217 68.4144 83.2848 68.4278C83.2479 68.4411 83.2085 68.4462 83.1695 68.4427H82.2361C82.1977 68.4462 82.1589 68.4414 82.1224 68.4285C82.086 68.4157 82.0528 68.3951 82.0251 68.3681C81.9974 68.3412 81.9758 68.3086 81.9619 68.2726C81.948 68.2365 81.942 68.1979 81.9445 68.1593Z" fill="#999999"/>
<path d="M85.9426 65.6639C85.9426 63.9806 87.1296 62.7686 88.8129 62.7686C90.4963 62.7686 91.6833 63.9806 91.6833 65.6639C91.6833 67.3232 90.5083 68.5704 88.8129 68.5704C87.1176 68.5704 85.9426 67.3232 85.9426 65.6639ZM90.1944 65.6639C90.1944 64.8306 89.649 64.2102 88.8139 64.2102C87.9787 64.2102 87.4333 64.8278 87.4333 65.6639C87.4333 66.5 87.9889 67.1176 88.8139 67.1176C89.6389 67.1176 90.1944 66.4991 90.1944 65.6639Z" fill="#999999"/>
<path d="M92.4833 67.5167C92.3907 67.3592 92.4352 67.2259 92.5926 67.1176L93.162 66.7417C93.3074 66.6491 93.4287 66.6815 93.55 66.8148C93.8995 67.1792 94.3778 67.3922 94.8824 67.4083C95.4028 67.4083 95.6815 67.2509 95.6815 66.887C95.6815 66.4389 94.9667 66.3176 94.5305 66.1722C94.0944 66.0268 92.6046 65.6759 92.6046 64.4528C92.6046 63.2657 93.6463 62.7565 94.8454 62.7565C95.9 62.7565 96.6389 63.1805 97.0018 63.6898C97.1111 63.8472 97.062 63.9926 96.9092 64.0889L96.4009 64.4167C96.2555 64.5092 96.1231 64.4889 95.9889 64.3676C95.6562 64.0846 95.2382 63.9216 94.8018 63.9046C94.3055 63.9046 94.087 64.0981 94.087 64.3768C94.087 64.825 94.7778 64.9463 95.2139 65.0917C95.65 65.237 97.1639 65.625 97.1639 66.8241C97.1639 67.9991 96.2917 68.6167 94.863 68.6167C93.6463 68.6194 92.8472 68.0981 92.4833 67.5167Z" fill="#999999"/>
<path d="M56.3667 35.299C67.0371 23.0555 88.8222 26.6583 95.7935 41.0814C96.2282 41.9904 96.5836 42.9353 96.8556 43.9055C96.4454 43.6018 96.0648 43.2879 95.6871 42.9796C94.6537 42.1574 93.3454 41.1759 92.2537 40.424C81.05 32.7231 69.2537 31.5861 56.3667 35.299Z" fill="#0CD2AB"/>
</g>
</g>
<defs>
<clipPath id="clip0_1_229">
<rect width="100" height="100" fill="white"/>
</clipPath>
<clipPath id="clip1_1_229">
<rect width="100" height="100" fill="white"/>
</clipPath>
</defs>
</svg>
